<?xml version="1.0" standalone="no"?>
<!DOCTYPE svg PUBLIC "-//W3C//DTD SVG 20010904//EN" "http://www.w3.org/TR/2001/REC-SVG-20010904/DTD/svg10.dtd">
<svg xmlns="http://www.w3.org/2000/svg"
     width="596.16pt"
     height="596.16pt"
     viewBox="0 0 596.16 596.16">
    <defs>
        <linearGradient id="gradient0" gradientUnits="objectBoundingBox" x1="0.00534139795732944" y1="0.45748587811989"
                        x2="1.00534139795733" y2="0.45748587811989" spreadMethod="pad">
            <stop stop-color="#6631d5" offset="0.0079" stop-opacity="1"/>
            <stop stop-color="#00d060" offset="1" stop-opacity="1"/>
        </linearGradient>
    </defs>
    <path id="shape0" transform="matrix(0.999999951600269 0 0 0.999999951600269 78.1765203810252 164.248011477433)"
          fill="url(#gradient0)" fill-rule="evenodd" stroke-opacity="0" stroke="#000000" stroke-width="0"
          stroke-linecap="square" stroke-linejoin="bevel"
          d="M67.7027 150.617L50.1439 150.617L50.1439 235.171C50.1439 246.301 47.8364 254.499 43.2216 259.765C38.6068 265.031 32.5851 267.664 25.1563 267.664C17.1648 267.664 10.9742 264.911 6.58451 259.406C2.19481 253.901 0 245.822 0 235.171L0 32.673C0 21.184 2.41999 12.866 7.25989 7.72C12.0998 2.573 19.9224 0 30.7279 0L112.275 0C123.53 0 133.154 0.509 141.146 1.526C149.137 2.543 156.341 4.608 162.757 7.72C170.522 11.19 177.388 16.157 183.354 22.62C189.32 29.082 193.85 36.592 196.946 45.149C200.041 53.706 201.588 62.772 201.588 72.347C201.588 91.974 196.383 107.652 185.971 119.381C175.559 131.109 159.774 139.427 138.613 144.334C147.505 149.361 156.003 156.781 164.107 166.594C172.212 176.408 179.443 186.85 185.803 197.921C192.161 208.991 197.114 218.984 200.66 227.9C204.205 236.816 205.978 242.95 205.978 246.301C205.978 249.772 204.937 253.213 202.854 256.624C200.772 260.034 197.93 262.727 194.328 264.702C190.727 266.677 186.562 267.664 181.835 267.664C176.207 267.664 171.479 266.258 167.652 263.445C163.826 260.633 160.534 257.072 157.775 252.764C155.018 248.455 151.276 242.112 146.548 233.735L126.457 198.19C119.253 185.145 112.809 175.211 107.125 168.39C101.442 161.568 95.6725 156.9 89.8201 154.387C83.9668 151.874 76.5946 150.617 67.7027 150.617M96.4046 40.033L50.1439 40.033L50.1439 112.379L95.0542 112.379C107.098 112.379 117.227 111.272 125.444 109.058C133.661 106.844 139.936 103.074 144.269 97.749C148.602 92.423 150.769 85.093 150.769 75.757C150.769 68.457 149.024 62.024 145.536 56.459C142.046 50.894 137.206 46.735 131.015 43.983C125.163 41.35 113.626 40.033 96.4046 40.033M412.119 41.11L299.168 41.11L299.168 105.737L403.17 105.737C410.824 105.737 416.536 107.562 420.306 111.213C424.077 114.863 425.962 119.68 425.962 125.664C425.962 131.648 424.106 136.525 420.391 140.295C416.677 144.065 410.937 145.95 403.17 145.95L299.168 145.95L299.168 220.809L416.001 220.809C423.88 220.809 429.817 222.754 433.813 226.644C437.809 230.533 439.807 235.709 439.807 242.172C439.807 248.395 437.809 253.452 433.813 257.342C429.817 261.231 423.88 263.176 416.001 263.176L279.752 263.176C268.834 263.176 260.983 260.603 256.2 255.457C251.416 250.31 249.024 241.993 249.024 230.503L249.024 32.673C249.024 25.013 250.093 18.76 252.232 13.913C254.371 9.066 257.719 5.535 262.277 3.321C266.836 1.107 272.661 0 279.752 0L412.119 0C420.11 0 426.047 1.885 429.93 5.655C433.813 9.425 435.755 14.362 435.755 20.465C435.755 26.689 433.813 31.685 429.93 35.455C426.047 39.225 420.11 41.11 412.119 41.11"
    />
</svg>
