<?xml version="1.0" standalone="no"?>
<!DOCTYPE svg PUBLIC "-//W3C//DTD SVG 20010904//EN" "http://www.w3.org/TR/2001/REC-SVG-20010904/DTD/svg10.dtd">
<svg xmlns="http://www.w3.org/2000/svg"
     width="595.44pt"
     height="595.44pt"
     viewBox="0 0 595.44 595.44">
    <defs>
        <linearGradient id="gradient0" gradientUnits="objectBoundingBox" x1="0.00534139795732944" y1="0.45748587811989"
                        x2="1.00534139795733" y2="0.45748587811989" spreadMethod="reflect">
            <stop stop-color="#470c8a" offset="0.0077" stop-opacity="1"/>
            <stop stop-color="#00b553" offset="1" stop-opacity="1"/>
        </linearGradient>
    </defs>
    <rect id="shape0" transform="matrix(0.999999955700441 0 0 0.999999955700441 0 0)" fill="#262626" fill-rule="evenodd"
          stroke="#262626" stroke-width="0.0024000089552377" stroke-linecap="square" stroke-linejoin="bevel"
          width="595.20222089895" height="595.20222089895"/>
    <path id="shape0" transform="matrix(0.99999995570044 0 0 0.99999995570044 22.5490331497389 427.063904316748)"
          fill="url(#gradient0)" fill-rule="evenodd" stroke="none" stroke-width="0" stroke-linecap="square"
          stroke-linejoin="bevel"
          d="M105.322 -112.559L85.7272 -112.559L85.7272 -28.0051C85.7272 -16.8748 83.1522 -8.67678 78.0023 -3.41087C72.8524 1.85504 66.1324 4.48799 57.8423 4.48799C48.9241 4.48799 42.0157 1.73536 37.117 -3.76991C32.2183 -9.27518 29.769 -17.3536 29.769 -28.0051L29.769 -230.503C29.769 -241.992 32.4696 -250.31 37.8707 -255.456C43.2718 -260.603 52.0015 -263.176 64.0599 -263.176L155.063 -263.176C167.623 -263.176 178.363 -262.667 187.281 -261.65C196.199 -260.633 204.238 -258.568 211.398 -255.456C220.064 -251.986 227.726 -247.019 234.384 -240.556C241.041 -234.094 246.097 -226.584 249.551 -218.027C253.005 -209.47 254.732 -200.404 254.732 -190.829C254.732 -171.202 248.923 -155.524 237.304 -143.795C225.685 -132.067 208.069 -123.749 184.455 -118.842C194.378 -113.815 203.861 -106.395 212.905 -96.5816C221.949 -86.7678 230.019 -76.3258 237.116 -65.2554C244.212 -54.185 249.739 -44.1918 253.696 -35.2756C257.652 -26.3595 259.631 -20.2259 259.631 -16.8748C259.631 -13.4041 258.469 -9.96334 256.145 -6.55247C253.821 -3.14159 250.65 -0.448799 246.63 1.52592C242.611 3.50063 237.964 4.48799 232.688 4.48799C226.408 4.48799 221.132 3.08175 216.861 0.269279C212.591 -2.5432 208.917 -6.10367 205.839 -10.4121C202.762 -14.7206 198.586 -21.0636 193.31 -29.4412L170.889 -64.9861C162.85 -78.0312 155.659 -87.9646 149.316 -94.7864C142.973 -101.608 136.535 -106.276 130.004 -108.789C123.472 -111.302 115.245 -112.559 105.322 -112.559M137.352 -223.143L85.7272 -223.143L85.7272 -150.797L135.845 -150.797C149.285 -150.797 160.589 -151.904 169.759 -154.118C178.928 -156.332 185.931 -160.102 190.766 -165.427C195.602 -170.753 198.02 -178.083 198.02 -187.419C198.02 -194.719 196.073 -201.152 192.18 -206.717C188.286 -212.282 182.885 -216.441 175.976 -219.193C169.445 -221.826 156.57 -223.143 137.352 -223.143M489.674 -222.066L363.626 -222.066L363.626 -157.439L479.688 -157.439C488.229 -157.439 494.604 -155.614 498.811 -151.963C503.019 -148.313 505.123 -143.496 505.123 -137.512C505.123 -131.528 503.051 -126.651 498.906 -122.881C494.761 -119.111 488.355 -117.226 479.688 -117.226L363.626 -117.226L363.626 -42.3666L494.007 -42.3666C502.799 -42.3666 509.425 -40.4218 513.884 -36.5322C518.343 -32.6427 520.573 -27.4665 520.573 -21.0038C520.573 -14.7805 518.343 -9.72398 513.884 -5.83439C509.425 -1.9448 502.799 0 494.007 0L341.959 0C329.775 0 321.014 -2.57312 315.676 -7.71935C310.337 -12.8656 307.668 -21.1833 307.668 -32.6726L307.668 -230.503C307.668 -238.163 308.861 -244.416 311.248 -249.263C313.635 -254.11 317.371 -257.641 322.458 -259.855C327.546 -262.069 334.046 -263.176 341.959 -263.176L489.674 -263.176C498.592 -263.176 505.217 -261.291 509.551 -257.521C513.884 -253.751 516.051 -248.814 516.051 -242.711C516.051 -236.487 513.884 -231.491 509.551 -227.721C505.217 -223.951 498.592 -222.066 489.674 -222.066"
    />
</svg>
